<svg xmlns="http://www.w3.org/2000/svg" viewBox="0 0 32 32" width="32" height="32" shape-rendering="crispEdges" role="img" aria-label="Cursor"><title>Cursor</title><path fill="#241f12" d="M8 0h2v1h-2zM8 1h2v1h-2zM8 2h4v1h-4zM8 3h4v1h-4zM8 4h2v1h-2zM12 4h2v1h-2zM8 5h2v1h-2zM12 5h2v1h-2zM8 6h2v1h-2zM14 6h2v1h-2zM8 7h2v1h-2zM14 7h2v1h-2zM8 8h2v1h-2zM16 8h2v1h-2zM8 9h2v1h-2zM16 9h2v1h-2zM8 10h2v1h-2zM18 10h2v1h-2zM8 11h2v1h-2zM18 11h2v1h-2zM8 12h2v1h-2zM20 12h2v1h-2zM8 13h2v1h-2zM20 13h2v1h-2zM8 14h2v1h-2zM22 14h2v1h-2zM8 15h2v1h-2zM22 15h2v1h-2zM8 16h2v1h-2zM24 16h2v1h-2zM8 17h2v1h-2zM24 17h2v1h-2zM8 18h2v1h-2zM18 18h10v1h-10zM8 19h2v1h-2zM18 19h10v1h-10zM8 20h2v1h-2zM14 20h2v1h-2zM20 20h2v1h-2zM8 21h2v1h-2zM14 21h2v1h-2zM20 21h2v1h-2zM8 22h2v1h-2zM12 22h2v1h-2zM16 22h2v1h-2zM22 22h2v1h-2zM8 23h2v1h-2zM12 23h2v1h-2zM16 23h2v1h-2zM22 23h2v1h-2zM8 24h4v1h-4zM16 24h2v1h-2zM22 24h2v1h-2zM8 25h4v1h-4zM16 25h2v1h-2zM22 25h2v1h-2zM18 26h2v1h-2zM24 26h2v1h-2zM18 27h2v1h-2zM24 27h2v1h-2zM18 28h2v1h-2zM24 28h2v1h-2zM18 29h2v1h-2zM24 29h2v1h-2zM20 30h4v1h-4zM20 31h4v1h-4z"/><path fill="#fdf6e6" d="M10 4h2v1h-2zM10 5h2v1h-2zM12 6h2v1h-2zM12 7h2v1h-2zM12 8h4v1h-4zM12 9h4v1h-4zM12 10h6v1h-6zM12 11h6v1h-6zM12 12h8v1h-8zM12 13h8v1h-8zM12 14h10v1h-10zM12 15h10v1h-10zM12 16h12v1h-12zM12 17h12v1h-12zM12 18h6v1h-6zM12 19h6v1h-6zM12 20h2v1h-2zM18 20h2v1h-2zM12 21h2v1h-2zM18 21h2v1h-2zM20 22h2v1h-2zM20 23h2v1h-2zM20 24h2v1h-2zM20 25h2v1h-2zM22 26h2v1h-2zM22 27h2v1h-2zM22 28h2v1h-2zM22 29h2v1h-2z"/><path fill="#cdb994" d="M10 6h2v1h-2zM10 7h2v1h-2zM10 8h2v1h-2zM10 9h2v1h-2zM10 10h2v1h-2zM10 11h2v1h-2zM10 12h2v1h-2zM10 13h2v1h-2zM10 14h2v1h-2zM10 15h2v1h-2zM10 16h2v1h-2zM10 17h2v1h-2zM10 18h2v1h-2zM10 19h2v1h-2zM10 20h2v1h-2zM16 20h2v1h-2zM10 21h2v1h-2zM16 21h2v1h-2zM10 22h2v1h-2zM18 22h2v1h-2zM10 23h2v1h-2zM18 23h2v1h-2zM18 24h2v1h-2zM18 25h2v1h-2zM20 26h2v1h-2zM20 27h2v1h-2zM20 28h2v1h-2zM20 29h2v1h-2z"/></svg>
