<svg xmlns="http://www.w3.org/2000/svg" viewBox="0 0 16 16" width="16" height="16" shape-rendering="crispEdges" role="img" aria-label="Canvas"><title>Canvas</title><path fill="#241f12" d="M0 1h16v1h-16zM0 2h1v1h-1zM2 2h4v1h-4zM10 2h4v1h-4zM15 2h1v1h-1zM0 3h1v1h-1zM2 3h1v1h-1zM5 3h1v1h-1zM10 3h1v1h-1zM13 3h1v1h-1zM15 3h1v1h-1zM0 4h1v1h-1zM2 4h1v1h-1zM5 4h6v1h-6zM13 4h1v1h-1zM15 4h1v1h-1zM0 5h1v1h-1zM2 5h4v1h-4zM10 5h4v1h-4zM15 5h1v1h-1zM0 6h1v1h-1zM4 6h1v1h-1zM11 6h1v1h-1zM15 6h1v1h-1zM0 7h1v1h-1zM4 7h1v1h-1zM11 7h1v1h-1zM15 7h1v1h-1zM0 8h1v1h-1zM4 8h1v1h-1zM11 8h1v1h-1zM15 8h1v1h-1zM0 9h1v1h-1zM4 9h1v1h-1zM11 9h1v1h-1zM15 9h1v1h-1zM0 10h1v1h-1zM2 10h4v1h-4zM10 10h4v1h-4zM15 10h1v1h-1zM0 11h1v1h-1zM2 11h1v1h-1zM5 11h6v1h-6zM13 11h1v1h-1zM15 11h1v1h-1zM0 12h1v1h-1zM2 12h1v1h-1zM5 12h1v1h-1zM10 12h1v1h-1zM13 12h1v1h-1zM15 12h1v1h-1zM0 13h1v1h-1zM2 13h4v1h-4zM10 13h4v1h-4zM15 13h1v1h-1zM0 14h16v1h-16z"/><path fill="#3a629c" d="M1 2h1v1h-1zM6 2h4v1h-4zM14 2h1v1h-1zM1 3h1v1h-1zM1 4h1v1h-1zM1 5h1v1h-1zM1 6h1v1h-1zM1 7h1v1h-1zM1 8h1v1h-1zM1 9h1v1h-1zM1 10h1v1h-1zM1 11h1v1h-1zM1 12h1v1h-1zM1 13h1v1h-1z"/><path fill="#f4d78d" d="M3 3h2v1h-2zM11 3h2v1h-2zM3 4h1v1h-1zM11 4h1v1h-1zM3 11h2v1h-2zM11 11h2v1h-2zM3 12h1v1h-1zM11 12h1v1h-1z"/><path fill="#1d3d70" d="M6 3h4v1h-4zM2 6h2v1h-2zM12 6h2v1h-2zM2 7h2v1h-2zM12 7h2v1h-2zM2 8h2v1h-2zM12 8h2v1h-2zM2 9h2v1h-2zM12 9h2v1h-2zM6 12h4v1h-4z"/><path fill="#12274a" d="M14 3h1v1h-1zM14 4h1v1h-1zM14 5h1v1h-1zM14 6h1v1h-1zM14 7h1v1h-1zM14 8h1v1h-1zM14 9h1v1h-1zM14 10h1v1h-1zM14 11h1v1h-1zM14 12h1v1h-1zM6 13h4v1h-4zM14 13h1v1h-1z"/><path fill="#a97f26" d="M4 4h1v1h-1zM12 4h1v1h-1zM4 12h1v1h-1zM12 12h1v1h-1z"/><path fill="#fdf6e6" d="M6 5h4v1h-4zM5 6h1v1h-1zM5 7h1v1h-1zM5 8h1v1h-1zM5 9h1v1h-1z"/><path fill="#f2e3c4" d="M6 6h4v1h-4zM6 7h4v1h-4zM6 8h4v1h-4zM6 9h4v1h-4z"/><path fill="#cdb994" d="M10 6h1v1h-1zM10 7h1v1h-1zM10 8h1v1h-1zM10 9h1v1h-1zM6 10h4v1h-4z"/></svg>
